<?xml version="1.0" standalone="no"?>
<!DOCTYPE svg PUBLIC "-//W3C//DTD SVG 20010904//EN"
 "http://www.w3.org/TR/2001/REC-SVG-20010904/DTD/svg10.dtd">
<svg version="1.0" xmlns="http://www.w3.org/2000/svg"
 width="864.000000pt" height="864.000000pt" viewBox="0 0 864.000000 864.000000"
 preserveAspectRatio="xMidYMid meet">
<metadata>
Created by potrace 1.14, written by Peter Selinger 2001-2017
</metadata>
<g transform="translate(0.000000,864.000000) scale(0.100000,-0.100000)"
fill="#000000" stroke="none">
<path d="M2408 8631 c-2 -4 -46 -22 -98 -41 -52 -18 -115 -42 -140 -53 -25
-11 -49 -21 -55 -22 -11 -3 -66 -27 -180 -81 -44 -21 -82 -38 -85 -39 -17 -5
-86 -41 -91 -48 -3 -5 -9 -8 -13 -7 -10 3 -219 -111 -228 -124 -4 -6 -8 -8 -8
-4 0 9 -275 -157 -316 -191 -5 -4 -20 -14 -33 -20 -12 -7 -30 -19 -39 -26 -9
-8 -59 -44 -111 -81 -52 -37 -102 -73 -110 -80 -103 -84 -191 -155 -222 -179
l-39 -30 3 -2100 c2 -1155 6 -2116 9 -2135 3 -19 9 -64 13 -100 12 -107 18
-147 41 -255 9 -44 17 -89 19 -100 2 -11 4 -20 5 -20 1 0 3 -7 5 -15 19 -89
88 -316 111 -367 8 -17 14 -35 14 -40 0 -25 144 -335 218 -468 66 -121 207
-336 224 -343 4 -2 8 -8 8 -13 0 -9 21 -37 52 -71 10 -10 15 -18 12 -18 -3 0
1 -6 8 -14 7 -7 31 -35 53 -61 122 -147 305 -332 445 -449 137 -115 155 -129
173 -141 355 -239 346 -234 572 -345 156 -76 382 -170 410 -170 7 0 17 -5 20
-10 4 -6 10 -8 15 -5 5 3 11 1 15 -5 3 -5 16 -10 29 -10 12 0 26 -3 30 -7 3
-4 12 -8 19 -9 7 -2 62 -16 122 -33 93 -25 207 -51 290 -66 43 -8 162 -27 190
-30 17 -2 48 -6 70 -9 173 -21 503 -27 695 -12 58 5 115 9 128 9 12 1 22 3 22
6 0 4 21 7 48 8 44 2 117 10 117 13 0 2 37 9 81 14 22 3 47 7 55 10 7 3 25 7
39 10 140 23 508 138 648 202 29 13 55 24 57 24 32 0 545 280 565 309 3 4 23
18 45 31 22 13 42 27 45 30 3 4 25 20 50 38 25 17 59 42 75 56 17 14 40 33 53
43 141 110 354 319 482 472 25 30 53 63 63 73 9 10 17 20 17 22 0 3 29 44 65
93 36 48 69 93 73 98 13 18 78 119 102 160 13 22 28 42 32 43 4 2 8 12 8 22 0
10 4 21 9 25 13 8 151 283 151 301 0 7 5 14 10 14 6 0 10 8 10 18 0 10 5 23
12 30 7 7 9 12 5 12 -3 0 7 29 23 65 16 36 27 65 23 65 -3 0 -1 6 4 13 8 9 68
185 79 232 2 6 5 19 8 30 12 45 28 111 32 134 3 14 7 27 9 31 2 4 7 29 11 56
3 27 8 53 11 57 2 4 6 20 8 35 2 15 6 41 9 57 36 208 50 542 32 775 -5 58 -9
122 -10 142 0 21 -3 38 -6 38 -3 0 -6 12 -6 28 -2 32 -12 106 -19 142 -3 14
-8 41 -11 60 -3 19 -8 39 -11 43 -2 4 -6 20 -8 35 -3 15 -7 37 -10 50 -3 12
-7 30 -9 40 -23 98 -85 298 -117 378 -7 16 -13 34 -14 39 -2 6 -12 32 -24 57
-11 26 -21 49 -21 52 0 10 -141 300 -148 306 -4 3 -16 23 -27 45 -25 50 -117
198 -150 241 -14 18 -25 37 -25 43 0 6 -3 11 -7 11 -5 0 -19 17 -33 38 -22 33
-128 169 -155 198 -5 6 -33 38 -62 71 -111 128 -282 290 -436 413 -11 8 -24
20 -31 25 -6 6 -27 22 -46 35 -19 13 -41 30 -48 37 -7 7 -17 13 -22 13 -5 0
-17 8 -27 18 -38 39 -355 232 -380 232 -7 0 -13 4 -13 8 0 4 -28 21 -62 37
-35 16 -98 46 -140 66 -43 21 -78 36 -78 33 0 -2 -10 2 -22 10 -13 8 -25 15
-28 15 -8 0 -41 12 -75 26 -42 19 -205 74 -235 80 -14 3 -36 10 -50 15 -32 11
-163 45 -215 55 -22 5 -44 9 -50 11 -5 1 -21 4 -35 7 -14 3 -36 8 -50 11 -14
3 -38 7 -55 10 -16 2 -46 7 -65 10 -19 3 -53 8 -75 11 -22 3 -56 7 -75 9 -194
25 -685 25 -802 0 -12 -2 -45 -7 -73 -9 -76 -7 -169 -21 -215 -31 -14 -3 -36
-8 -50 -11 -22 -4 -85 -18 -132 -29 -10 -2 -26 -6 -36 -8 -9 -2 -37 -9 -62
-16 -25 -7 -52 -14 -60 -15 -24 -6 -252 -82 -285 -96 -16 -7 -32 -13 -35 -14
-80 -27 -410 -180 -420 -194 -8 -11 -40 -21 -41 -13 -1 4 -2 434 -3 956 -1
885 -2 949 -18 952 -9 1 -18 -1 -20 -5z m2557 -3056 c50 -4 106 -9 125 -11 19
-2 70 -6 112 -9 42 -3 87 -8 100 -11 13 -3 39 -7 58 -9 107 -12 180 -22 220
-30 13 -3 42 -7 65 -10 22 -4 54 -9 70 -12 17 -3 39 -7 50 -9 114 -19 257 -52
267 -62 7 -7 9 -12 6 -12 -4 0 -2 -15 3 -32 9 -32 36 -157 45 -208 2 -14 9
-47 14 -75 5 -27 12 -66 15 -85 3 -19 8 -46 10 -60 3 -14 8 -43 10 -65 3 -22
7 -51 10 -65 4 -22 10 -64 20 -150 3 -28 15 -147 20 -200 13 -137 18 -258 19
-482 1 -142 -1 -258 -4 -258 -3 0 -6 -15 -6 -32 -1 -18 -5 -64 -9 -103 -5 -38
-9 -81 -11 -95 -1 -14 -3 -25 -4 -25 -1 0 -3 -11 -5 -25 -3 -30 -15 -109 -19
-130 -6 -34 -19 -115 -18 -120 0 -3 -4 -12 -8 -20 -5 -9 -11 -36 -15 -60 -4
-24 -12 -53 -17 -65 -6 -11 -10 -20 -8 -20 19 0 -104 -285 -167 -383 -18 -29
-33 -56 -33 -61 0 -5 -3 -11 -7 -13 -5 -1 -26 -25 -47 -53 -60 -77 -191 -203
-298 -288 -54 -42 -102 -77 -107 -77 -4 0 -14 -7 -22 -16 -7 -8 -31 -25 -53
-36 -23 -11 -43 -23 -46 -27 -13 -16 -299 -160 -350 -176 -3 -1 -12 -4 -20 -7
-75 -29 -291 -86 -353 -94 -23 -3 -48 -7 -56 -10 -67 -22 -543 -22 -581 1 -3
1 -27 6 -54 9 -27 4 -53 9 -56 11 -4 2 -20 6 -36 9 -16 3 -54 13 -84 21 -30 8
-62 17 -70 19 -106 30 -355 144 -446 206 -25 16 -49 30 -55 30 -5 0 -9 4 -9 8
0 4 -13 15 -29 25 -83 49 -259 208 -371 336 -67 77 -180 233 -175 242 3 3 26
12 52 19 27 7 53 16 58 19 6 3 13 6 18 7 4 1 8 2 10 4 1 1 9 3 17 5 8 1 74 26
145 55 72 29 144 58 160 64 17 6 32 13 35 16 3 3 46 25 95 49 50 25 92 48 93
53 2 4 8 8 14 8 14 0 142 80 146 92 2 4 7 8 12 8 10 0 105 64 126 84 9 9 25
21 36 27 11 6 29 19 41 29 12 10 65 53 117 96 86 72 317 296 365 355 61 75
118 156 141 202 14 28 10 25 -36 -21 -29 -29 -69 -65 -89 -80 -20 -15 -45 -35
-55 -44 -11 -10 -23 -18 -27 -18 -4 0 -14 -6 -21 -13 -7 -7 -31 -24 -53 -37
-22 -13 -42 -27 -45 -30 -3 -3 -16 -11 -30 -18 -14 -7 -47 -26 -75 -42 -27
-16 -57 -33 -65 -36 -8 -3 -22 -10 -30 -15 -8 -5 -24 -13 -35 -18 -11 -5 -45
-20 -75 -34 -110 -50 -205 -88 -222 -90 -10 -1 -18 -4 -18 -7 0 -4 -6 -7 -12
-7 -7 -1 -39 -11 -72 -23 -61 -22 -231 -71 -298 -85 -13 -2 -43 -9 -68 -15
-25 -6 -61 -12 -80 -14 -19 -3 -35 -5 -35 -6 0 -1 -13 -3 -30 -5 -16 -2 -48
-7 -70 -10 -46 -7 -153 -17 -205 -19 -19 -1 -41 -5 -47 -9 -7 -5 -13 -5 -13 0
0 4 -22 7 -49 7 -46 -1 -50 1 -56 25 -3 14 -8 37 -11 51 -3 14 -7 32 -8 40 -2
8 -6 31 -9 50 -16 87 -20 146 -20 300 0 91 3 188 7 215 4 28 9 64 11 80 3 25
18 93 39 180 36 147 161 428 237 537 11 14 19 31 19 36 0 6 3 12 8 14 4 2 34
40 66 86 33 45 63 82 67 82 4 0 10 8 13 18 9 26 203 224 271 276 33 25 65 50
72 56 7 5 15 10 19 10 4 0 15 6 23 14 24 21 239 127 261 129 11 1 20 4 20 8 0
4 47 23 90 34 45 12 103 29 135 40 57 19 392 77 424 73 3 0 8 0 11 1 7 3 56 7
165 16 50 4 91 8 93 10 6 5 545 -3 637 -10z"/>
</g>
</svg>
