<svg width="283" height="31" viewBox="0 0 283 31" fill="none" xmlns="http://www.w3.org/2000/svg">
<path d="M202.013 8.28014H201.936C201.083 6.5474 198.87 4.47559 194.764 4.47559C190.034 4.47559 185.46 8.12932 185.46 14.1963C185.46 18.7561 189.026 23.012 194.338 23.012C198.214 23.012 200.656 21.091 201.743 19.1688H201.82V21.8065C201.82 27.3076 198.641 29.4928 194.182 29.4928C191.468 29.4928 189.453 28.7387 187.941 27.7601L187.243 29.2286C188.871 30.434 191.546 30.9999 193.872 30.9999C196.121 30.9999 198.912 30.4726 200.85 28.7784C202.594 27.2725 203.718 24.7471 203.718 20.3392V9.29734C203.718 7.82883 203.757 6.39657 203.873 4.92689H202.129L202.013 8.28014ZM201.82 15.2135C201.814 15.8838 201.683 16.5475 201.432 17.1719C200.904 18.443 199.999 19.5331 198.833 20.3044C197.666 21.0757 196.291 21.4935 194.88 21.5049C189.685 21.5049 187.36 17.5869 187.36 13.9694C187.36 9.14768 190.5 5.98268 194.957 5.98268C198.292 5.98268 200.656 7.90366 201.549 10.3157C201.744 10.925 201.836 11.5613 201.82 12.1993V15.2135Z" fill="black"/>
<path d="M211.046 8.84632H210.926L210.847 4.92718H209.103C209.223 6.88675 209.258 8.80773 209.258 10.7731V23.0123H211.158V13.2121C211.161 12.6168 211.226 12.0234 211.352 11.4408C211.983 8.31901 213.954 6.20862 216.555 6.20862C216.918 6.1936 217.281 6.21871 217.638 6.28345V4.58812C217.347 4.51002 217.047 4.47069 216.746 4.4712C213.992 4.47587 211.983 6.32203 211.046 8.84632Z" fill="black"/>
<path d="M228.569 4.47559C223.374 4.47559 218.722 8.12932 218.722 14.1577C218.722 19.5079 222.754 23.4645 228.298 23.4645C232.87 23.4645 238.301 20.5251 238.301 13.7438C238.301 8.58179 234.54 4.47559 228.569 4.47559ZM228.414 21.9574C224.382 21.9574 220.621 19.094 220.621 14.0454C220.621 9.82582 223.297 5.978 228.569 5.978C234.036 5.978 236.401 10.4209 236.401 13.8525C236.406 19.0578 232.523 21.9574 228.414 21.9574Z" fill="black"/>
<path d="M258.382 4.92676H256.483V15.8915C256.464 16.615 256.306 17.3287 256.017 17.996C255.009 20.1006 252.649 21.8391 249.814 21.8391C245.704 21.8391 244.192 18.901 244.192 14.6813V4.92676H242.292V15.0625C242.292 22.7488 247.178 23.4643 249.31 23.4643C253.071 23.4643 255.436 21.3539 256.56 19.3569H256.638L256.758 23.0118H258.543C258.422 21.5422 258.387 20.1111 258.387 18.6414L258.382 4.92676Z" fill="black"/>
<path d="M274.044 4.47559C270.168 4.47559 267.609 6.24575 266.213 8.69521H266.135L265.98 4.92689H264.159C264.279 6.88646 264.314 8.80745 264.314 10.7729V30.5474H266.213V19.7721H266.29C267.841 22.2964 270.671 23.4645 273.579 23.4645C278.658 23.4645 283 19.923 283 13.593C283 8.69521 279.511 4.47559 274.044 4.47559ZM273.423 21.9574C269.935 21.9574 267.182 19.7359 266.407 17.1719C266.283 16.7043 266.218 16.2237 266.213 15.7408V12.5383C266.213 12.0485 266.407 11.4451 266.562 10.9553C267.609 7.68151 270.594 5.98268 273.66 5.98268C278.313 5.98268 281.104 9.56158 281.104 13.6678C281.1 18.7164 278.153 21.9574 273.423 21.9574Z" fill="black"/>
<path d="M36.5942 4.54111C33.6042 4.54235 30.737 5.69722 28.6228 7.75191C26.5085 9.80661 25.3202 12.593 25.3189 15.4988C25.3189 21.526 30.3923 26.4576 36.5942 26.4576C38.0848 26.4726 39.5636 26.2002 40.9452 25.6562C42.3267 25.1122 43.5836 24.3074 44.6431 23.2884C45.7026 22.2693 46.5436 21.0562 47.1176 19.7193C47.6916 18.3823 47.9872 16.948 47.9872 15.4994C47.9872 14.0507 47.6916 12.6164 47.1176 11.2795C46.5436 9.94252 45.7026 8.72944 44.6431 7.71038C43.5836 6.69133 42.3267 5.88653 40.9452 5.34254C39.5636 4.79854 38.0848 4.52615 36.5942 4.54111ZM36.5942 21.4839C35.3762 21.4839 34.1854 21.1329 33.1727 20.4752C32.1599 19.8176 31.3705 18.8828 30.9044 17.7892C30.4383 16.6956 30.3163 15.4922 30.554 14.3312C30.7916 13.1702 31.3781 12.1037 32.2394 11.2667C33.1007 10.4297 34.1981 9.85963 35.3927 9.62869C36.5874 9.39776 37.8257 9.51628 38.951 9.96928C40.0763 10.4223 41.0382 11.1894 41.7149 12.1736C42.3916 13.1579 42.7528 14.3151 42.7528 15.4988C42.7464 17.0842 42.0956 18.603 40.942 19.7241C39.7884 20.8452 38.2256 21.4777 36.5942 21.4839Z" fill="black"/>
<path d="M71.1155 4.96191H64.7403L60.0122 10.947L55.242 4.96191H48.8668L56.8036 15.1199L48.2605 26.0355H54.6789L60.0122 19.2927L65.3034 26.0355H71.723L63.1787 15.1199L71.1155 4.96191Z" fill="black"/>
<path d="M94.5323 18.4918L90.5429 4.96191H85.8592L81.8698 18.4918L77.7926 4.96191H72.4148L79.1376 26.0355H84.602L88.2004 14.7831L91.7568 26.0355H97.2645L103.987 4.96191H98.6095L94.5323 18.4918Z" fill="black"/>
<path d="M116.043 4.54102C113.053 4.54225 110.186 5.69708 108.071 7.75174C105.957 9.80641 104.768 12.5928 104.767 15.4987C104.767 21.5259 109.841 26.4575 116.043 26.4575C119.014 26.4277 121.852 25.2601 123.942 23.2082C126.031 21.1564 127.203 18.3861 127.203 15.4993C127.203 12.6124 126.031 9.84216 123.942 7.79033C121.852 5.73849 119.014 4.57083 116.043 4.54102ZM116.043 21.4838C114.825 21.484 113.634 21.1332 112.621 20.4757C111.609 19.8182 110.819 18.8835 110.353 17.7899C109.886 16.6963 109.764 15.4929 110.002 14.3318C110.239 13.1707 110.826 12.1042 111.687 11.267C112.548 10.4299 113.646 9.85971 114.84 9.62868C116.035 9.39765 117.273 9.51611 118.399 9.96907C119.524 10.422 120.486 11.1892 121.163 12.1734C121.839 13.1577 122.201 14.3149 122.201 15.4987C122.194 17.0839 121.544 18.6025 120.39 19.7236C119.237 20.8446 117.675 21.4773 116.043 21.4838Z" fill="black"/>
<path d="M141.369 4.54102C138.379 4.54225 135.512 5.69708 133.398 7.75174C131.283 9.80641 130.095 12.5928 130.093 15.4987C130.093 21.5259 135.168 26.4575 141.369 26.4575C144.34 26.4277 147.178 25.2601 149.268 23.2082C151.357 21.1564 152.529 18.3861 152.529 15.4993C152.529 12.6124 151.357 9.84216 149.268 7.79033C147.178 5.73849 144.34 4.57083 141.369 4.54102ZM141.369 21.4838C140.151 21.484 138.961 21.1332 137.948 20.4757C136.935 19.8182 136.145 18.8835 135.679 17.7899C135.213 16.6963 135.09 15.4929 135.328 14.3318C135.565 13.1707 136.152 12.1042 137.013 11.267C137.874 10.4299 138.972 9.85971 140.166 9.62868C141.361 9.39765 142.599 9.51611 143.725 9.96907C144.85 10.422 145.812 11.1892 146.489 12.1734C147.166 13.1577 147.527 14.3149 147.527 15.4987C147.521 17.0839 146.87 18.6025 145.716 19.7236C144.563 20.8446 143.001 21.4773 141.369 21.4838Z" fill="black"/>
<path d="M19.0268 7.54364C17.642 6.26483 15.9442 5.35088 14.0941 4.8884C11.2337 4.1747 8.1995 4.57671 5.64006 6.00849V0C3.55983 0.714886 1.64376 1.81872 9.10865e-06 3.24919V15.5023C-0.00251099 17.4259 0.517939 19.3159 1.50868 20.9812C2.5014 22.6461 3.9248 24.0298 5.63766 24.995C8.1971 26.4268 11.2313 26.8288 14.0917 26.1151C15.0798 25.8681 16.0285 25.4912 16.9117 24.995C18.625 24.0299 20.0489 22.6462 21.0419 20.9812C22.0304 19.3148 22.5506 17.4252 22.5506 15.5018C22.5506 13.5783 22.0304 11.6887 21.0419 10.0223C20.4955 9.10677 19.8169 8.27205 19.0268 7.54364ZM17.3906 15.0826C17.4002 15.2229 17.2161 17.1942 16.8745 17.9366C16.6617 18.5277 16.3203 19.0673 15.8735 19.5185C15.4411 19.9407 14.9561 20.3088 14.4298 20.6141L14.3299 20.6713L14.194 20.745L14.0604 20.8128L13.9125 20.8853L13.892 20.8935C13.3088 21.1667 12.6853 21.3497 12.0441 21.436L11.8167 21.4629C10.9175 21.5469 10.0104 21.4342 9.16189 21.1332C8.31336 20.8321 7.54492 20.3504 6.91292 19.7231C6.54968 19.3716 6.23101 18.979 5.96369 18.5539C6.52491 18.3856 7.0726 18.1773 7.60229 17.9308C9.4382 17.0726 11.2536 15.1679 11.3054 14.6406C11.149 15.1633 8.49017 16.9977 5.28997 16.9977C4.7558 15.0101 5.31884 12.7793 7.12707 11.022C7.69854 10.4655 8.46129 10.1042 9.30586 9.87501C9.92665 9.6704 11.4594 9.55699 11.4594 9.55699C14.1531 9.40967 16.8432 10.0632 16.8432 10.0632C16.8432 10.0632 17.4808 12.5338 17.3906 15.0826Z" fill="#13BA46"/>
<path d="M172.35 6.02722C169.788 4.59477 166.751 4.19397 163.889 4.91064C162.899 5.15702 161.949 5.5343 161.065 6.0319C159.35 6.99586 157.926 8.38122 156.937 10.0489C155.947 11.7167 155.426 13.6081 155.426 15.5333C155.426 17.4586 155.947 19.35 156.937 21.0178C157.926 22.6855 159.35 24.0708 161.065 25.0348C161.949 25.5319 162.899 25.9092 163.889 26.1561C165.557 26.5744 167.301 26.6161 168.988 26.278C170.675 25.9399 172.26 25.231 173.622 24.2055C174.983 23.1801 176.085 21.8653 176.843 20.362C177.601 18.8587 177.994 17.2068 177.994 15.5328V3.26442C176.349 1.83237 174.432 0.727325 172.35 0.0117188V6.02722ZM166.708 21.4793C166.708 21.4793 165.94 21.4501 165.942 21.4325C164.454 21.2517 163.084 20.5487 162.092 19.4558C161.099 18.3628 160.551 16.955 160.551 15.4971C160.551 14.0392 161.099 12.6314 162.092 11.5384C163.084 10.4455 164.454 9.74251 165.942 9.56169C166.196 9.53193 166.452 9.51632 166.708 9.51492C168.325 9.5369 169.869 10.1768 171.005 11.2963C172.141 12.4158 172.778 13.9249 172.778 15.4971C172.778 17.0693 172.141 18.5784 171.005 19.6979C169.869 20.8174 168.325 21.4573 166.708 21.4793Z" fill="black"/>
</svg>
